<?xml version="1.0" encoding="UTF-8"?>
<!DOCTYPE svg PUBLIC "-//W3C//DTD SVG 1.1//EN" "http://www.w3.org/Graphics/SVG/1.1/DTD/svg11.dtd">
<svg xmlns="http://www.w3.org/2000/svg" version="1.1" width="500px" height="500px" style="shape-rendering:geometricPrecision; text-rendering:geometricPrecision; image-rendering:optimizeQuality; fill-rule:evenodd; clip-rule:evenodd" xmlns:xlink="http://www.w3.org/1999/xlink">
<g><path style="opacity:1" fill="#e4533e" d="M 303.5,111.5 C 300.188,111.057 296.855,110.724 293.5,110.5C 288.272,111.77 282.939,112.436 277.5,112.5C 279.148,111.073 281.148,110.24 283.5,110C 286.333,109.833 289.167,109.667 292,109.5C 296.133,109.286 299.966,109.952 303.5,111.5 Z"/></g>
<g><path style="opacity:1" fill="#e77266" d="M 303.5,111.5 C 308.652,113.064 312.652,116.064 315.5,120.5C 312.63,119.567 310.296,117.9 308.5,115.5C 306.111,115.021 304.444,113.688 303.5,111.5 Z"/></g>
<g><path style="opacity:1" fill="#e3503f" d="M 231.5,120.5 C 230.041,120.567 228.708,120.234 227.5,119.5C 225.548,116.873 222.881,115.54 219.5,115.5C 219.5,114.5 219.5,113.5 219.5,112.5C 215.524,111.846 211.524,111.179 207.5,110.5C 203.493,110.835 199.493,111.168 195.5,111.5C 196.263,110.732 197.263,110.232 198.5,110C 211.948,106.652 222.948,110.152 231.5,120.5 Z"/></g>
<g><path style="opacity:0.467" fill="#e27866" d="M 277.5,112.5 C 275.704,114.9 273.37,116.567 270.5,117.5C 272.296,115.1 274.63,113.433 277.5,112.5 Z"/></g>
<g><path style="opacity:1" fill="#f63623" d="M 227.5,119.5 C 224.756,122.385 221.423,124.551 217.5,126C 216.359,126.741 216.359,127.575 217.5,128.5C 213.552,129.684 209.552,130.684 205.5,131.5C 204.104,133.791 202.271,134.125 200,132.5C 197.845,133.244 195.845,134.244 194,135.5C 192.715,135.05 191.548,134.383 190.5,133.5C 188.878,134.933 187.545,136.599 186.5,138.5C 185.476,137.147 184.143,136.48 182.5,136.5C 182.052,140.524 181.386,144.524 180.5,148.5C 179.808,147.975 179.308,147.308 179,146.5C 178.501,142.514 178.334,138.514 178.5,134.5C 178.993,132.194 179.326,129.861 179.5,127.5C 182.474,119.859 187.808,114.526 195.5,111.5C 199.493,111.168 203.493,110.835 207.5,110.5C 211.524,111.179 215.524,111.846 219.5,112.5C 219.5,113.5 219.5,114.5 219.5,115.5C 222.881,115.54 225.548,116.873 227.5,119.5 Z"/></g>
<g><path style="opacity:1" fill="#f93622" d="M 303.5,111.5 C 304.444,113.688 306.111,115.021 308.5,115.5C 308.937,118.807 308.27,121.807 306.5,124.5C 307.5,125.167 308.5,125.833 309.5,126.5C 307.041,127.643 304.707,127.31 302.5,125.5C 300.448,126.734 298.781,128.4 297.5,130.5C 289.88,132.488 282.213,134.322 274.5,136C 272.824,137.177 271.491,138.677 270.5,140.5C 269.561,138.947 268.394,137.613 267,136.5C 266.05,137.022 265.216,137.689 264.5,138.5C 263.425,136.189 263.425,133.856 264.5,131.5C 266.671,127.014 268.671,122.347 270.5,117.5C 273.37,116.567 275.704,114.9 277.5,112.5C 282.939,112.436 288.272,111.77 293.5,110.5C 296.855,110.724 300.188,111.057 303.5,111.5 Z"/></g>
<g><path style="opacity:1" fill="#e53022" d="M 308.5,115.5 C 310.296,117.9 312.63,119.567 315.5,120.5C 317.25,121.659 318.25,123.326 318.5,125.5C 320.271,133.353 320.938,141.353 320.5,149.5C 319.001,150.678 318.001,152.345 317.5,154.5C 317.167,154.333 316.833,154.167 316.5,154C 317.139,151.684 317.139,149.184 316.5,146.5C 315.156,149.177 313.156,151.177 310.5,152.5C 310.228,149.439 310.228,146.439 310.5,143.5C 308.493,145.008 306.826,146.842 305.5,149C 295.237,150.565 284.903,152.731 274.5,155.5C 273.006,155.291 271.839,154.624 271,153.5C 269.961,154.244 269.461,155.244 269.5,156.5C 268.07,156.579 266.736,156.246 265.5,155.5C 262.96,148.019 262.127,140.352 263,132.5C 263.383,131.944 263.883,131.611 264.5,131.5C 263.425,133.856 263.425,136.189 264.5,138.5C 265.216,137.689 266.05,137.022 267,136.5C 268.394,137.613 269.561,138.947 270.5,140.5C 271.491,138.677 272.824,137.177 274.5,136C 282.213,134.322 289.88,132.488 297.5,130.5C 298.781,128.4 300.448,126.734 302.5,125.5C 304.707,127.31 307.041,127.643 309.5,126.5C 308.5,125.833 307.5,125.167 306.5,124.5C 308.27,121.807 308.937,118.807 308.5,115.5 Z"/></g>
<g><path style="opacity:1" fill="#e63121" d="M 227.5,119.5 C 228.708,120.234 230.041,120.567 231.5,120.5C 232.605,122.713 232.605,124.88 231.5,127C 232.448,127.483 233.448,127.649 234.5,127.5C 234.505,131.534 234.838,135.534 235.5,139.5C 233.362,139.297 231.695,138.297 230.5,136.5C 228.5,139.771 226.5,143.105 224.5,146.5C 223.614,145.675 223.281,144.675 223.5,143.5C 218.396,144.104 213.396,144.604 208.5,145C 208.043,145.414 207.709,145.914 207.5,146.5C 202.906,147.964 198.24,149.13 193.5,150C 191.972,151.361 190.305,152.528 188.5,153.5C 187.833,152.5 187.167,151.5 186.5,150.5C 185.575,151.641 184.741,151.641 184,150.5C 183.584,152.55 182.417,153.884 180.5,154.5C 180.759,152.011 179.759,150.344 177.5,149.5C 177.5,149.167 177.5,148.833 177.5,148.5C 177.181,143.637 177.514,138.97 178.5,134.5C 178.334,138.514 178.501,142.514 179,146.5C 179.308,147.308 179.808,147.975 180.5,148.5C 181.386,144.524 182.052,140.524 182.5,136.5C 184.143,136.48 185.476,137.147 186.5,138.5C 187.545,136.599 188.878,134.933 190.5,133.5C 191.548,134.383 192.715,135.05 194,135.5C 195.845,134.244 197.845,133.244 200,132.5C 202.271,134.125 204.104,133.791 205.5,131.5C 209.552,130.684 213.552,129.684 217.5,128.5C 216.359,127.575 216.359,126.741 217.5,126C 221.423,124.551 224.756,122.385 227.5,119.5 Z"/></g>
<g><path style="opacity:0.995" fill="#c73f34" d="M 318.5,125.5 C 321.875,130.022 323.208,135.189 322.5,141C 322.924,146.257 321.924,151.09 319.5,155.5C 319.325,153.379 319.659,151.379 320.5,149.5C 320.938,141.353 320.271,133.353 318.5,125.5 Z"/></g>
<g><path style="opacity:0.612" fill="#cc6255" d="M 179.5,127.5 C 179.326,129.861 178.993,132.194 178.5,134.5C 177.514,138.97 177.181,143.637 177.5,148.5C 176.35,143.684 176.184,138.684 177,133.5C 177.566,131.277 178.4,129.277 179.5,127.5 Z"/></g>
<g><path style="opacity:1" fill="#db2d23" d="M 231.5,120.5 C 235.691,124.552 238.024,129.552 238.5,135.5C 238.85,141.004 238.183,146.337 236.5,151.5C 234.284,150.797 232.451,149.464 231,147.5C 230.148,150.377 228.981,153.043 227.5,155.5C 226.425,153.098 225.258,150.764 224,148.5C 223.691,149.766 223.191,150.933 222.5,152C 223.634,153.016 223.301,153.683 221.5,154C 214.506,157.11 207.172,158.61 199.5,158.5C 199.5,159.5 199.5,160.5 199.5,161.5C 197.5,161.5 195.5,161.5 193.5,161.5C 193.55,159.41 192.55,158.077 190.5,157.5C 189.571,158.689 189.238,160.022 189.5,161.5C 190.5,161.5 191.5,161.5 192.5,161.5C 192.5,162.833 192.5,164.167 192.5,165.5C 187.399,165.315 185.066,162.648 185.5,157.5C 183.336,157.279 181.67,156.279 180.5,154.5C 182.417,153.884 183.584,152.55 184,150.5C 184.741,151.641 185.575,151.641 186.5,150.5C 187.167,151.5 187.833,152.5 188.5,153.5C 190.305,152.528 191.972,151.361 193.5,150C 198.24,149.13 202.906,147.964 207.5,146.5C 207.709,145.914 208.043,145.414 208.5,145C 213.396,144.604 218.396,144.104 223.5,143.5C 223.281,144.675 223.614,145.675 224.5,146.5C 226.5,143.105 228.5,139.771 230.5,136.5C 231.695,138.297 233.362,139.297 235.5,139.5C 234.838,135.534 234.505,131.534 234.5,127.5C 233.448,127.649 232.448,127.483 231.5,127C 232.605,124.88 232.605,122.713 231.5,120.5 Z"/></g>
<g><path style="opacity:1" fill="#d12824" d="M 236.5,151.5 C 234.751,153.928 233.418,156.594 232.5,159.5C 231.914,159.291 231.414,158.957 231,158.5C 230.505,160.473 230.338,162.473 230.5,164.5C 228.519,166.144 226.519,167.81 224.5,169.5C 222.677,170.747 220.677,171.414 218.5,171.5C 212.862,172.459 207.195,172.626 201.5,172C 199.138,170.269 196.471,169.435 193.5,169.5C 193.167,169.5 192.833,169.5 192.5,169.5C 192.926,167.861 192.926,166.528 192.5,165.5C 192.5,164.167 192.5,162.833 192.5,161.5C 191.5,161.5 190.5,161.5 189.5,161.5C 189.238,160.022 189.571,158.689 190.5,157.5C 192.55,158.077 193.55,159.41 193.5,161.5C 195.5,161.5 197.5,161.5 199.5,161.5C 199.5,160.5 199.5,159.5 199.5,158.5C 207.172,158.61 214.506,157.11 221.5,154C 223.301,153.683 223.634,153.016 222.5,152C 223.191,150.933 223.691,149.766 224,148.5C 225.258,150.764 226.425,153.098 227.5,155.5C 228.981,153.043 230.148,150.377 231,147.5C 232.451,149.464 234.284,150.797 236.5,151.5 Z"/></g>
<g><path style="opacity:1" fill="#d32824" d="M 320.5,149.5 C 319.659,151.379 319.325,153.379 319.5,155.5C 317.801,155.34 316.134,155.506 314.5,156C 315.406,157.699 315.739,159.533 315.5,161.5C 314.5,161.5 313.5,161.5 312.5,161.5C 312.5,162.833 312.5,164.167 312.5,165.5C 311.694,166.728 310.694,167.728 309.5,168.5C 307.833,168.5 306.167,168.5 304.5,168.5C 304.649,167.448 304.483,166.448 304,165.5C 303.506,167.134 303.34,168.801 303.5,170.5C 295.475,169.584 287.475,169.251 279.5,169.5C 277.525,168.251 277.191,166.751 278.5,165C 276.328,164.276 273.994,163.776 271.5,163.5C 270.643,162.264 269.977,160.931 269.5,159.5C 270.167,159.167 270.833,158.833 271.5,158.5C 270.757,157.818 270.091,157.151 269.5,156.5C 269.461,155.244 269.961,154.244 271,153.5C 271.839,154.624 273.006,155.291 274.5,155.5C 284.903,152.731 295.237,150.565 305.5,149C 306.826,146.842 308.493,145.008 310.5,143.5C 310.228,146.439 310.228,149.439 310.5,152.5C 313.156,151.177 315.156,149.177 316.5,146.5C 317.139,149.184 317.139,151.684 316.5,154C 316.833,154.167 317.167,154.333 317.5,154.5C 318.001,152.345 319.001,150.678 320.5,149.5 Z"/></g>
<g><path style="opacity:1" fill="#d1554e" d="M 319.5,155.5 C 318.641,159.892 316.307,163.225 312.5,165.5C 312.5,164.167 312.5,162.833 312.5,161.5C 313.5,161.5 314.5,161.5 315.5,161.5C 315.739,159.533 315.406,157.699 314.5,156C 316.134,155.506 317.801,155.34 319.5,155.5 Z"/></g>
<g><path style="opacity:1" fill="#d0453a" d="M 177.5,149.5 C 179.759,150.344 180.759,152.011 180.5,154.5C 181.67,156.279 183.336,157.279 185.5,157.5C 185.066,162.648 187.399,165.315 192.5,165.5C 192.926,166.528 192.926,167.861 192.5,169.5C 184.482,165.142 179.482,158.475 177.5,149.5 Z"/></g>
<g><path style="opacity:1" fill="#ce574d" d="M 238.5,135.5 C 240.682,146.431 238.016,156.098 230.5,164.5C 230.338,162.473 230.505,160.473 231,158.5C 231.414,158.957 231.914,159.291 232.5,159.5C 233.418,156.594 234.751,153.928 236.5,151.5C 238.183,146.337 238.85,141.004 238.5,135.5 Z"/></g>
<g><path style="opacity:1" fill="#d5473c" d="M 270.5,117.5 C 268.671,122.347 266.671,127.014 264.5,131.5C 263.883,131.611 263.383,131.944 263,132.5C 262.127,140.352 262.96,148.019 265.5,155.5C 266.736,156.246 268.07,156.579 269.5,156.5C 270.091,157.151 270.757,157.818 271.5,158.5C 270.833,158.833 270.167,159.167 269.5,159.5C 269.977,160.931 270.643,162.264 271.5,163.5C 273.994,163.776 276.328,164.276 278.5,165C 277.191,166.751 277.525,168.251 279.5,169.5C 287.475,169.251 295.475,169.584 303.5,170.5C 303.34,168.801 303.506,167.134 304,165.5C 304.483,166.448 304.649,167.448 304.5,168.5C 306.167,168.5 307.833,168.5 309.5,168.5C 307.396,169.912 305.063,170.912 302.5,171.5C 296.196,172.26 289.863,172.593 283.5,172.5C 264.805,165.118 257.639,151.451 262,131.5C 263.577,126.002 266.411,121.335 270.5,117.5 Z"/></g>
<g><path style="opacity:0.216" fill="#c14d49" d="M 193.5,169.5 C 196.471,169.435 199.138,170.269 201.5,172C 207.195,172.626 212.862,172.459 218.5,171.5C 218.082,172.222 217.416,172.722 216.5,173C 210.833,173.667 205.167,173.667 199.5,173C 197.121,172.284 195.121,171.117 193.5,169.5 Z"/></g>
<g><path style="opacity:0.38" fill="#d36960" d="M 302.5,171.5 C 302.082,172.222 301.416,172.722 300.5,173C 294.651,173.818 288.985,173.652 283.5,172.5C 289.863,172.593 296.196,172.26 302.5,171.5 Z"/></g>
<g><path style="opacity:0.424" fill="#898887" d="M 364.5,199.5 C 288.571,198.503 212.571,198.17 136.5,198.5C 136.5,215.5 136.5,232.5 136.5,249.5C 135.338,232.338 135.171,215.005 136,197.5C 136.414,197.043 136.914,196.709 137.5,196.5C 192.177,196.729 247.011,196.729 302,196.5C 323.118,196.828 343.951,197.828 364.5,199.5 Z"/></g>
<g><path style="opacity:1" fill="#0c0e0d" d="M 271.5,287.5 C 266.167,287.5 260.833,287.5 255.5,287.5C 255.5,292.833 255.5,298.167 255.5,303.5C 250.167,303.5 244.833,303.5 239.5,303.5C 239.965,292.918 239.965,282.251 239.5,271.5C 233.833,271.5 228.167,271.5 222.5,271.5C 222.701,268.272 222.367,265.105 221.5,262C 222.167,260.333 222.833,258.667 223.5,257C 222.189,255.377 221.523,253.877 221.5,252.5C 220.5,298.162 220.167,343.828 220.5,389.5C 219.501,343.67 219.168,297.67 219.5,251.5C 219.5,251.167 219.5,250.833 219.5,250.5C 220.708,249.766 222.041,249.433 223.5,249.5C 223.799,247.396 223.466,245.396 222.5,243.5C 221.833,244.167 221.167,244.833 220.5,245.5C 205.674,243.538 190.674,242.872 175.5,243.5C 175.5,244.833 175.5,246.167 175.5,247.5C 163.69,248.032 152.023,247.366 140.5,245.5C 140.334,235.494 140.5,225.494 141,215.5C 141.064,212.237 141.898,209.237 143.5,206.5C 141.009,205.459 141.009,204.626 143.5,204C 151.167,203.333 158.833,203.333 166.5,204C 164.405,204.556 164.238,205.056 166,205.5C 167.68,204.453 169.514,203.787 171.5,203.5C 186.136,204.999 200.803,206.332 215.5,207.5C 222.641,206.564 229.807,205.897 237,205.5C 242.592,205.322 246.092,205.655 247.5,206.5C 247.5,208.167 247.5,209.833 247.5,211.5C 250.167,211.5 252.833,211.5 255.5,211.5C 255.5,215.5 255.5,219.5 255.5,223.5C 250.167,223.5 244.833,223.5 239.5,223.5C 239.5,228.833 239.5,234.167 239.5,239.5C 244.833,239.5 250.167,239.5 255.5,239.5C 255.5,244.833 255.5,250.167 255.5,255.5C 261.167,255.5 266.833,255.5 272.5,255.5C 272.787,266.218 272.454,276.885 271.5,287.5 Z"/></g>
<g><path style="opacity:1" fill="#0f100f" d="M 364.5,199.5 C 364.187,211.551 364.521,223.551 365.5,235.5C 364.873,238.702 364.206,241.869 363.5,245C 365.043,247.045 364.71,248.545 362.5,249.5C 335.375,249.522 308.041,249.522 280.5,249.5C 279.833,296.167 279.167,342.833 278.5,389.5C 276.833,389.5 275.167,389.5 273.5,389.5C 271.833,389.5 270.167,389.5 268.5,389.5C 268.351,388.448 268.517,387.448 269,386.5C 270.073,387.28 271.24,387.113 272.5,386C 271.542,384.853 271.875,383.853 273.5,383C 272.684,375.579 272.184,368.079 272,360.5C 271.503,362.81 271.337,365.143 271.5,367.5C 260.833,367.5 250.167,367.5 239.5,367.5C 239.5,362.167 239.5,356.833 239.5,351.5C 250.5,351.5 261.5,351.5 272.5,351.5C 272.179,330.012 271.845,308.679 271.5,287.5C 272.454,276.885 272.787,266.218 272.5,255.5C 266.833,255.5 261.167,255.5 255.5,255.5C 255.5,250.167 255.5,244.833 255.5,239.5C 250.167,239.5 244.833,239.5 239.5,239.5C 239.5,234.167 239.5,228.833 239.5,223.5C 244.833,223.5 250.167,223.5 255.5,223.5C 255.5,219.5 255.5,215.5 255.5,211.5C 252.833,211.5 250.167,211.5 247.5,211.5C 247.5,209.833 247.5,208.167 247.5,206.5C 246.092,205.655 242.592,205.322 237,205.5C 229.807,205.897 222.641,206.564 215.5,207.5C 200.803,206.332 186.136,204.999 171.5,203.5C 169.514,203.787 167.68,204.453 166,205.5C 164.238,205.056 164.405,204.556 166.5,204C 158.833,203.333 151.167,203.333 143.5,204C 141.009,204.626 141.009,205.459 143.5,206.5C 141.898,209.237 141.064,212.237 141,215.5C 140.5,225.494 140.334,235.494 140.5,245.5C 152.023,247.366 163.69,248.032 175.5,247.5C 175.5,246.167 175.5,244.833 175.5,243.5C 190.674,242.872 205.674,243.538 220.5,245.5C 221.167,244.833 221.833,244.167 222.5,243.5C 223.466,245.396 223.799,247.396 223.5,249.5C 222.041,249.433 220.708,249.766 219.5,250.5C 192.672,249.502 165.672,249.169 138.5,249.5C 137.833,249.5 137.167,249.5 136.5,249.5C 136.5,232.5 136.5,215.5 136.5,198.5C 212.571,198.17 288.571,198.503 364.5,199.5 Z"/></g>
<g><path style="opacity:0.004" fill="#f8f8f8" d="M 138.5,249.5 C 165.672,249.169 192.672,249.502 219.5,250.5C 219.5,250.833 219.5,251.167 219.5,251.5C 192.831,251.667 166.165,251.5 139.5,251C 138.944,250.617 138.611,250.117 138.5,249.5 Z"/></g>
<g><path style="opacity:0.004" fill="#f8f8f8" d="M 280.5,249.5 C 308.041,249.522 335.375,249.522 362.5,249.5C 349.183,250.833 335.517,251.499 321.5,251.5C 307.483,251.499 293.817,250.833 280.5,249.5 Z"/></g>
<g><path style="opacity:1" fill="#0c0d0c" d="M 271.5,287.5 C 271.845,308.679 272.179,330.012 272.5,351.5C 261.5,351.5 250.5,351.5 239.5,351.5C 239.5,356.833 239.5,362.167 239.5,367.5C 250.167,367.5 260.833,367.5 271.5,367.5C 271.337,365.143 271.503,362.81 272,360.5C 272.184,368.079 272.684,375.579 273.5,383C 271.875,383.853 271.542,384.853 272.5,386C 271.24,387.113 270.073,387.28 269,386.5C 268.517,387.448 268.351,388.448 268.5,389.5C 252.426,388.858 236.593,389.524 221,391.5C 220.536,390.906 220.369,390.239 220.5,389.5C 220.167,343.828 220.5,298.162 221.5,252.5C 221.523,253.877 222.189,255.377 223.5,257C 222.833,258.667 222.167,260.333 221.5,262C 222.367,265.105 222.701,268.272 222.5,271.5C 228.167,271.5 233.833,271.5 239.5,271.5C 239.965,282.251 239.965,292.918 239.5,303.5C 244.833,303.5 250.167,303.5 255.5,303.5C 255.5,298.167 255.5,292.833 255.5,287.5C 260.833,287.5 266.167,287.5 271.5,287.5 Z"/></g>
<g><path style="opacity:0.004" fill="#f0f0f0" d="M 273.5,389.5 C 275.167,389.5 276.833,389.5 278.5,389.5C 276.833,392.167 275.167,392.167 273.5,389.5 Z"/></g>
</svg>
